<svg xmlns="http://www.w3.org/2000/svg" xmlns:xlink="http://www.w3.org/1999/xlink" width="24" zoomAndPan="magnify" viewBox="0 0 375 374.999991" height="24" preserveAspectRatio="xMidYMid meet" version="1.0">
<style>
  path {
    fill: #fff;
    opacity: 0.7;
  } 

  @media (prefers-color-scheme: light) {
    path {
      fill: #2b2b2b;
    } 
  }
</style>

<path d="M 277.605469 160.714844 C 279.4375 143.820312 281.265625 126.925781 283.097656 110.03125 C 222.058594 103.386719 161.023438 96.738281 99.984375 90.09375 C 129.355469 71.59375 162.808594 56.875 197.484375 58.4375 C 229.851562 59.894531 260.8125 75.964844 282.601562 99.945312 C 305.8125 125.484375 319.027344 160.820312 314.539062 195.039062 C 295.664062 200.125 276.789062 205.207031 257.914062 210.292969 C 283.609375 210.292969 309.96875 214.34375 335.59375 216.335938 C 341.398438 216.789062 348.90625 218.714844 354.632812 217.820312 C 361.121094 216.804688 360.136719 214.207031 361.003906 207.347656 C 362.292969 197.144531 362.636719 186.828125 362.078125 176.5625 C 361.9375 173.984375 361.742188 171.410156 361.488281 168.84375 C 357.71875 130.472656 341.46875 93.25 315.199219 64.957031 C 312.675781 62.242188 310.066406 59.613281 307.367188 57.074219 C 264.507812 16.75 200.480469 0.335938 143.511719 15.074219 C 86.546875 29.808594 38.503906 75.210938 20.566406 131.261719 C 83.070312 136.632812 145.460938 143.300781 207.6875 151.246094 L 135.402344 191.019531 L 99 211.050781 L 98.699219 211.214844 L 98.523438 211.3125 L 97.414062 222.476562 C 97.414062 222.476562 95.664062 239.933594 95.574219 240.710938 C 94.933594 247.003906 94.445312 253.339844 93.671875 259.609375 C 153.699219 265.746094 213.679688 272.457031 273.664062 278.90625 C 273.953125 278.925781 274.242188 278.972656 274.507812 278.992188 C 272.46875 278.992188 263.832031 287.789062 261.792969 289.183594 C 257.097656 292.441406 252.179688 295.363281 247.085938 297.957031 C 237.226562 302.964844 226.726562 306.6875 215.917969 309.125 C 166.125 320.332031 114.382812 300.484375 84.078125 259.652344 C 73.535156 245.472656 65.894531 229.035156 62.707031 211.621094 C 62.417969 210.050781 62.261719 208.386719 61.996094 206.792969 C 58.496094 186.125 60.511719 170.882812 60.511719 170.882812 L 120.605469 161.84375 C 108.3125 160.046875 95.910156 158.363281 83.460938 157.742188 L 74.601562 156.769531 L 45.03125 153.511719 L 34.949219 152.40625 L 14.773438 150.1875 C 14.640625 150.1875 14.527344 151.363281 14.484375 153.289062 L 14.484375 153.359375 C 13.796875 161.597656 12.355469 184.839844 15.257812 210.449219 C 23.144531 280.0625 76.179688 336.898438 143.207031 355.566406 C 211.894531 374.699219 290.09375 343.957031 331.066406 286.617188 C 336.261719 279.34375 340.878906 271.660156 344.855469 263.65625 C 345.921875 261.511719 354.992188 238.253906 354.980469 238.25 L 338.234375 236.523438 L 300.734375 232.625 L 298.695312 232.425781 L 170.398438 219.132812 L 165.261719 218.601562 L 165.542969 218.457031 L 174.785156 213.726562 L 183.070312 209.472656 L 204.289062 198.59375 L 277.5625 161 "/>
</svg>